<svg width="312" height="48" viewBox="0 0 312 48" fill="none" xmlns="http://www.w3.org/2000/svg">
<path d="M0.555664 36V34.6025L5.09082 33.8906V2.72461L0.555664 2.03906V0.641602H14.7148V2.03906L10.1797 2.72461V16.6201H26.8174V2.72461L22.2822 2.03906V0.641602H36.415V2.03906L31.8799 2.72461V33.8906L36.415 34.6025V36H22.2822V34.6025L26.8174 33.8906V18.9932H10.1797V33.8906L14.7148 34.6025V36H0.555664ZM50.2842 10.6611C52.9912 10.6611 54.9775 11.2148 56.2432 12.3223C57.5264 13.4297 58.168 15.126 58.168 17.4111V34.1543L61.2529 34.8135V36H54.4502L53.9492 33.5215C51.9453 35.5254 49.3877 36.5273 46.2764 36.5273C42.04 36.5273 39.9219 34.0664 39.9219 29.1445C39.9219 27.4922 40.2383 26.1299 40.8711 25.0576C41.5215 23.9678 42.5498 23.1416 43.9561 22.5791C45.3623 21.999 47.4014 21.6826 50.0732 21.6299L53.791 21.5244V17.6484C53.791 15.9434 53.4746 14.6865 52.8418 13.8779C52.2266 13.0693 51.2686 12.665 49.9678 12.665C48.21 12.665 46.6016 13.0781 45.1426 13.9043L44.2461 16.9893H42.7695V11.584C45.6172 10.9688 48.1221 10.6611 50.2842 10.6611ZM53.791 23.3701L50.3369 23.4756C47.9814 23.5635 46.3818 24.0205 45.5381 24.8467C44.7119 25.6729 44.2988 27.0527 44.2988 28.9863C44.2988 32.0801 45.5557 33.627 48.0693 33.627C49.2646 33.627 50.293 33.4951 51.1543 33.2314C52.0332 32.9502 52.9121 32.5986 53.791 32.1768V23.3701ZM62.9404 36V34.8135L66.2363 34.1543V13.0605L62.9404 12.4014V11.2148H73.6191V12.4014L70.6133 13.0605V33.8115H80.5801V13.0605L77.2842 12.4014V11.2148H87.9629V12.4014L84.957 13.0605V33.8115H94.8975V13.0605L91.6016 12.4014V11.2148H102.28V12.4014L99.2744 13.0605V34.1543L102.57 34.8135V36H62.9404ZM107.896 13.0605L104.601 12.4014V11.2148H115.279V12.4014L112.273 13.0605V28.6436L123.875 16.0928V13.0605L120.579 12.4014V11.2148H131.258V12.4014L128.252 13.0605V34.1543L131.258 34.8135V36H120.579V34.8135L123.875 34.1543V19.0723L112.273 31.623V34.1543L115.279 34.8135V36H104.601V34.8135L107.896 34.1543V13.0605Z" fill="black"/>
<path d="M147.579 36V34.6025L152.114 33.8906V2.72461L147.579 2.03906V0.641602H183.438V2.03906L178.903 2.72461V33.8906L183.438 34.6025V36H169.306V34.6025L173.841 33.8906V3.01465H157.203V33.8906L161.738 34.6025V36H147.579ZM209.99 23.4756C209.99 32.1768 206.123 36.5273 198.389 36.5273C194.662 36.5273 191.85 35.4111 189.951 33.1787C188.053 30.9463 187.104 27.7119 187.104 23.4756C187.104 19.292 188.053 16.0928 189.951 13.8779C191.85 11.6631 194.732 10.5557 198.6 10.5557C202.361 10.5557 205.2 11.6455 207.116 13.8252C209.032 15.9873 209.99 19.2041 209.99 23.4756ZM205.244 23.4756C205.244 19.6787 204.69 16.9277 203.583 15.2227C202.476 13.5176 200.744 12.665 198.389 12.665C196.086 12.665 194.416 13.4824 193.379 15.1172C192.359 16.752 191.85 19.5381 191.85 23.4756C191.85 27.4658 192.368 30.2959 193.405 31.9658C194.46 33.6182 196.121 34.4443 198.389 34.4443C200.709 34.4443 202.432 33.583 203.557 31.8604C204.682 30.1377 205.244 27.3428 205.244 23.4756ZM213.022 36V34.8135L216.318 34.1543V13.0605L213.022 12.4014V11.2148H223.622C227.507 11.2148 230.249 11.6982 231.849 12.665C233.466 13.6318 234.274 15.1436 234.274 17.2002C234.274 18.8877 233.791 20.1885 232.824 21.1025C231.875 22.0166 230.521 22.6758 228.764 23.0801V23.291C230.996 23.5371 232.71 24.1084 233.905 25.0049C235.101 25.9014 235.698 27.2461 235.698 29.0391C235.698 31.5176 234.793 33.3018 232.982 34.3916C231.189 35.4639 228.271 36 224.229 36H213.022ZM223.833 33.8906C226.435 33.8906 228.271 33.5039 229.344 32.7305C230.416 31.957 230.952 30.6914 230.952 28.9336C230.952 27.2637 230.381 26.0771 229.238 25.374C228.113 24.6533 226.197 24.293 223.49 24.293H220.695V33.8906H223.833ZM220.695 22.1836H223.49C225.6 22.1836 227.129 21.832 228.078 21.1289C229.045 20.4258 229.528 19.2305 229.528 17.543C229.528 16.1191 229.036 15.0645 228.052 14.3789C227.085 13.6758 225.529 13.3242 223.385 13.3242H220.695V22.1836ZM249.093 10.6611C251.8 10.6611 253.786 11.2148 255.052 12.3223C256.335 13.4297 256.977 15.126 256.977 17.4111V34.1543L260.062 34.8135V36H253.259L252.758 33.5215C250.754 35.5254 248.196 36.5273 245.085 36.5273C240.849 36.5273 238.73 34.0664 238.73 29.1445C238.73 27.4922 239.047 26.1299 239.68 25.0576C240.33 23.9678 241.358 23.1416 242.765 22.5791C244.171 21.999 246.21 21.6826 248.882 21.6299L252.6 21.5244V17.6484C252.6 15.9434 252.283 14.6865 251.65 13.8779C251.035 13.0693 250.077 12.665 248.776 12.665C247.019 12.665 245.41 13.0781 243.951 13.9043L243.055 16.9893H241.578V11.584C244.426 10.9688 246.931 10.6611 249.093 10.6611ZM252.6 23.3701L249.146 23.4756C246.79 23.5635 245.19 24.0205 244.347 24.8467C243.521 25.6729 243.107 27.0527 243.107 28.9863C243.107 32.0801 244.364 33.627 246.878 33.627C248.073 33.627 249.102 33.4951 249.963 33.2314C250.842 32.9502 251.721 32.5986 252.6 32.1768V23.3701ZM264.834 13.0605L262.013 12.4014V11.2148H268.974L269.026 12.665C269.765 12.0322 270.749 11.5225 271.979 11.1357C273.228 10.749 274.493 10.5557 275.776 10.5557C278.94 10.5557 281.384 11.6543 283.106 13.8516C284.847 16.0488 285.717 19.2041 285.717 23.3174C285.717 27.5186 284.768 30.7705 282.869 33.0732C280.988 35.376 278.264 36.5273 274.695 36.5273C272.709 36.5273 270.819 36.334 269.026 35.9473C269.132 37.2129 269.185 38.2061 269.185 38.9268V45.624L273.509 46.2568V47.4961H261.696V46.2568L264.834 45.624V13.0605ZM280.971 23.3174C280.971 19.9424 280.417 17.4375 279.31 15.8027C278.22 14.1504 276.559 13.3242 274.326 13.3242C272.27 13.3242 270.556 13.6143 269.185 14.1943V33.9961C270.749 34.2949 272.463 34.4443 274.326 34.4443C278.756 34.4443 280.971 30.7354 280.971 23.3174ZM300.087 10.6611C302.794 10.6611 304.78 11.2148 306.046 12.3223C307.329 13.4297 307.971 15.126 307.971 17.4111V34.1543L311.056 34.8135V36H304.253L303.752 33.5215C301.748 35.5254 299.19 36.5273 296.079 36.5273C291.843 36.5273 289.725 34.0664 289.725 29.1445C289.725 27.4922 290.041 26.1299 290.674 25.0576C291.324 23.9678 292.353 23.1416 293.759 22.5791C295.165 21.999 297.204 21.6826 299.876 21.6299L303.594 21.5244V17.6484C303.594 15.9434 303.277 14.6865 302.645 13.8779C302.029 13.0693 301.071 12.665 299.771 12.665C298.013 12.665 296.404 13.0781 294.945 13.9043L294.049 16.9893H292.572V11.584C295.42 10.9688 297.925 10.6611 300.087 10.6611ZM303.594 23.3701L300.14 23.4756C297.784 23.5635 296.185 24.0205 295.341 24.8467C294.515 25.6729 294.102 27.0527 294.102 28.9863C294.102 32.0801 295.358 33.627 297.872 33.627C299.067 33.627 300.096 33.4951 300.957 33.2314C301.836 32.9502 302.715 32.5986 303.594 32.1768V23.3701Z" fill="#D67E34"/>
</svg>
