<svg width="240" height="33" viewBox="0 0 292 47" fill="none" xmlns="http://www.w3.org/2000/svg">
<path d="M0.555664 36V34.6025L5.09082 33.8906V2.72461L0.555664 2.03906V0.641602H14.7148V2.03906L10.1797 2.72461V16.6201H26.8174V2.72461L22.2822 2.03906V0.641602H36.415V2.03906L31.8799 2.72461V33.8906L36.415 34.6025V36H22.2822V34.6025L26.8174 33.8906V18.9932H10.1797V33.8906L14.7148 34.6025V36H0.555664ZM50.2842 10.6611C52.9912 10.6611 54.9775 11.2148 56.2432 12.3223C57.5264 13.4297 58.168 15.126 58.168 17.4111V34.1543L61.2529 34.8135V36H54.4502L53.9492 33.5215C51.9453 35.5254 49.3877 36.5273 46.2764 36.5273C42.04 36.5273 39.9219 34.0664 39.9219 29.1445C39.9219 27.4922 40.2383 26.1299 40.8711 25.0576C41.5215 23.9678 42.5498 23.1416 43.9561 22.5791C45.3623 21.999 47.4014 21.6826 50.0732 21.6299L53.791 21.5244V17.6484C53.791 15.9434 53.4746 14.6865 52.8418 13.8779C52.2266 13.0693 51.2686 12.665 49.9678 12.665C48.21 12.665 46.6016 13.0781 45.1426 13.9043L44.2461 16.9893H42.7695V11.584C45.6172 10.9688 48.1221 10.6611 50.2842 10.6611ZM53.791 23.3701L50.3369 23.4756C47.9814 23.5635 46.3818 24.0205 45.5381 24.8467C44.7119 25.6729 44.2988 27.0527 44.2988 28.9863C44.2988 32.0801 45.5557 33.627 48.0693 33.627C49.2646 33.627 50.293 33.4951 51.1543 33.2314C52.0332 32.9502 52.9121 32.5986 53.791 32.1768V23.3701ZM62.9404 36V34.8135L66.2363 34.1543V13.0605L62.9404 12.4014V11.2148H73.6191V12.4014L70.6133 13.0605V33.8115H80.5801V13.0605L77.2842 12.4014V11.2148H87.9629V12.4014L84.957 13.0605V33.8115H94.8975V13.0605L91.6016 12.4014V11.2148H102.28V12.4014L99.2744 13.0605V34.1543L102.57 34.8135V36H62.9404ZM107.896 13.0605L104.601 12.4014V11.2148H115.279V12.4014L112.273 13.0605V28.6436L123.875 16.0928V13.0605L120.579 12.4014V11.2148H131.258V12.4014L128.252 13.0605V34.1543L131.258 34.8135V36H120.579V34.8135L123.875 34.1543V19.0723L112.273 31.623V34.1543L115.279 34.8135V36H104.601V34.8135L107.896 34.1543V13.0605Z" fill="black"/>
<path d="M161.185 16.3564C165.351 16.3564 168.506 17.1914 170.65 18.8613C172.812 20.5137 173.894 22.957 173.894 26.1914C173.894 29.4434 172.795 31.8955 170.598 33.5479C168.4 35.1826 165.175 36 160.921 36H147.579V34.6025L152.114 33.917V2.75098L147.922 2.03906V0.641602H171.679L172.021 8.78906H170.308L168.805 3.43652C168.084 3.2959 167.003 3.17285 165.562 3.06738C164.12 2.96191 162.714 2.90918 161.343 2.90918H157.203V16.3564H161.185ZM168.646 26.4287C168.646 23.7041 167.935 21.7441 166.511 20.5488C165.104 19.3359 162.916 18.7295 159.945 18.7295H157.203V33.627H159.787C162.969 33.627 165.236 33.0732 166.59 31.9658C167.961 30.8584 168.646 29.0127 168.646 26.4287ZM180.116 33.7324C180.89 33.7324 181.602 32.6602 182.252 30.5156C182.92 28.3711 183.632 24.8818 184.388 20.0479L185.495 13.0605L182.041 12.4014V11.2148H201.975V12.4014L198.969 13.0605V34.1543L201.975 34.8135V36H191.296V34.8135L194.592 34.1543V13.4033H187.868L186.734 20.7598C185.943 25.8574 185.267 29.3203 184.704 31.1484C184.159 32.959 183.482 34.3125 182.674 35.209C181.865 36.0879 180.863 36.5273 179.668 36.5273C179.088 36.5273 178.552 36.4307 178.06 36.2373C177.585 36.0615 177.225 35.8682 176.979 35.6572L176.82 31.3594H178.007L178.824 32.7568C178.93 32.9502 179.097 33.1611 179.325 33.3896C179.571 33.6182 179.835 33.7324 180.116 33.7324ZM241.525 23.4756C241.525 32.1768 237.658 36.5273 229.924 36.5273C226.32 36.5273 223.578 35.499 221.697 33.4424C219.816 31.3857 218.806 28.3799 218.665 24.4248H211.862V34.1543L214.868 34.8135V36H204.189V34.8135L207.485 34.1543V13.0605L204.189 12.4014V11.2148H214.868V12.4014L211.862 13.0605V22.2363H218.665C218.841 18.4395 219.878 15.5479 221.776 13.5615C223.675 11.5576 226.461 10.5557 230.135 10.5557C233.896 10.5557 236.735 11.6455 238.651 13.8252C240.567 15.9873 241.525 19.2041 241.525 23.4756ZM236.779 23.4756C236.779 19.6787 236.226 16.9277 235.118 15.2227C234.011 13.5176 232.279 12.665 229.924 12.665C227.621 12.665 225.951 13.4824 224.914 15.1172C223.895 16.752 223.385 19.5381 223.385 23.4756C223.385 27.4658 223.903 30.2959 224.94 31.9658C225.995 33.6182 227.656 34.4443 229.924 34.4443C232.244 34.4443 233.967 33.583 235.092 31.8604C236.217 30.1377 236.779 27.3428 236.779 23.4756ZM246.957 12.4014V11.2148H266.258V12.4014L263.252 13.0605V34.1543L267.102 34.5762L266.653 46.4414H264.939L262.646 36H245.296L243.002 46.4414H241.288L240.84 34.5762L244.742 34.0752C246.166 31.3682 247.37 28.1953 248.354 24.5566C249.356 20.9004 249.998 17.0684 250.279 13.0605L246.957 12.4014ZM247.511 33.8115H258.875V13.0605H252.547C252.318 16.9102 251.765 20.6367 250.886 24.2402C250.024 27.8262 248.899 31.0166 247.511 33.8115ZM280.575 10.6611C283.282 10.6611 285.269 11.2148 286.534 12.3223C287.817 13.4297 288.459 15.126 288.459 17.4111V34.1543L291.544 34.8135V36H284.741L284.24 33.5215C282.236 35.5254 279.679 36.5273 276.567 36.5273C272.331 36.5273 270.213 34.0664 270.213 29.1445C270.213 27.4922 270.529 26.1299 271.162 25.0576C271.812 23.9678 272.841 23.1416 274.247 22.5791C275.653 21.999 277.692 21.6826 280.364 21.6299L284.082 21.5244V17.6484C284.082 15.9434 283.766 14.6865 283.133 13.8779C282.518 13.0693 281.56 12.665 280.259 12.665C278.501 12.665 276.893 13.0781 275.434 13.9043L274.537 16.9893H273.061V11.584C275.908 10.9688 278.413 10.6611 280.575 10.6611ZM284.082 23.3701L280.628 23.4756C278.272 23.5635 276.673 24.0205 275.829 24.8467C275.003 25.6729 274.59 27.0527 274.59 28.9863C274.59 32.0801 275.847 33.627 278.36 33.627C279.556 33.627 280.584 33.4951 281.445 33.2314C282.324 32.9502 283.203 32.5986 284.082 32.1768V23.3701Z" fill="#D67E34"/>
</svg>
