<svg width="250" height="40" viewBox="0 0 315 48" fill="none" xmlns="http://www.w3.org/2000/svg">
<path d="M15.6377 36H0.555664V34.6025L5.09082 33.917V2.75098L0.555664 2.03906V0.641602H28.0039L28.4785 10.793H26.7646L25.1299 3.43652C23.3721 3.08496 20.6211 2.90918 16.877 2.90918H10.1797V33.917L15.6377 34.6025V36ZM41.1084 10.6611C43.8154 10.6611 45.8018 11.2148 47.0674 12.3223C48.3506 13.4297 48.9922 15.126 48.9922 17.4111V34.1543L52.0771 34.8135V36H45.2744L44.7734 33.5215C42.7695 35.5254 40.2119 36.5273 37.1006 36.5273C32.8643 36.5273 30.7461 34.0664 30.7461 29.1445C30.7461 27.4922 31.0625 26.1299 31.6953 25.0576C32.3457 23.9678 33.374 23.1416 34.7803 22.5791C36.1865 21.999 38.2256 21.6826 40.8975 21.6299L44.6152 21.5244V17.6484C44.6152 15.9434 44.2988 14.6865 43.666 13.8779C43.0508 13.0693 42.0928 12.665 40.792 12.665C39.0342 12.665 37.4258 13.0781 35.9668 13.9043L35.0703 16.9893H33.5938V11.584C36.4414 10.9688 38.9463 10.6611 41.1084 10.6611ZM44.6152 23.3701L41.1611 23.4756C38.8057 23.5635 37.2061 24.0205 36.3623 24.8467C35.5361 25.6729 35.123 27.0527 35.123 28.9863C35.123 32.0801 36.3799 33.627 38.8936 33.627C40.0889 33.627 41.1172 33.4951 41.9785 33.2314C42.8574 32.9502 43.7363 32.5986 44.6152 32.1768V23.3701ZM57.1396 33.7324C57.9131 33.7324 58.625 32.6602 59.2754 30.5156C59.9434 28.3711 60.6553 24.8818 61.4111 20.0479L62.5186 13.0605L59.0645 12.4014V11.2148H78.998V12.4014L75.9922 13.0605V34.1543L78.998 34.8135V36H68.3193V34.8135L71.6152 34.1543V13.4033H64.8916L63.7578 20.7598C62.9668 25.8574 62.29 29.3203 61.7275 31.1484C61.1826 32.959 60.5059 34.3125 59.6973 35.209C58.8887 36.0879 57.8867 36.5273 56.6914 36.5273C56.1113 36.5273 55.5752 36.4307 55.083 36.2373C54.6084 36.0615 54.248 35.8682 54.002 35.6572L53.8438 31.3594H55.0303L55.8477 32.7568C55.9531 32.9502 56.1201 33.1611 56.3486 33.3896C56.5947 33.6182 56.8584 33.7324 57.1396 33.7324ZM87.1191 23.5283V24.0029C87.1191 26.4287 87.3828 28.3184 87.9102 29.6719C88.4551 31.0078 89.2812 32.0273 90.3887 32.7305C91.5137 33.4336 92.9814 33.7852 94.792 33.7852C95.7412 33.7852 96.8662 33.7061 98.167 33.5479C99.4678 33.3896 100.54 33.2139 101.384 33.0205V34.4971C100.54 35.042 99.3887 35.5166 97.9297 35.9209C96.4883 36.3252 95.0117 36.5273 93.5 36.5273C89.6504 36.5273 86.8291 35.4902 85.0361 33.416C83.2607 31.3418 82.373 28.0107 82.373 23.4229C82.373 19.0986 83.2783 15.873 85.0889 13.7461C86.8994 11.6191 89.4834 10.5557 92.8408 10.5557C99.1865 10.5557 102.359 14.1592 102.359 21.3662V23.5283H87.1191ZM92.8408 12.665C91.0127 12.665 89.6064 13.4033 88.6221 14.8799C87.6553 16.3564 87.1719 18.5361 87.1719 21.4189H97.7715C97.7715 18.2725 97.3672 16.0312 96.5586 14.6953C95.75 13.3418 94.5107 12.665 92.8408 12.665ZM108.266 13.0605L105.444 12.4014V11.2148H112.405L112.458 12.665C113.196 12.0322 114.181 11.5225 115.411 11.1357C116.659 10.749 117.925 10.5557 119.208 10.5557C122.372 10.5557 124.815 11.6543 126.538 13.8516C128.278 16.0488 129.148 19.2041 129.148 23.3174C129.148 27.5186 128.199 30.7705 126.301 33.0732C124.42 35.376 121.695 36.5273 118.127 36.5273C116.141 36.5273 114.251 36.334 112.458 35.9473C112.563 37.2129 112.616 38.2061 112.616 38.9268V45.624L116.94 46.2568V47.4961H105.128V46.2568L108.266 45.624V13.0605ZM124.402 23.3174C124.402 19.9424 123.849 17.4375 122.741 15.8027C121.651 14.1504 119.99 13.3242 117.758 13.3242C115.701 13.3242 113.987 13.6143 112.616 14.1943V33.9961C114.181 34.2949 115.895 34.4443 117.758 34.4443C122.188 34.4443 124.402 30.7354 124.402 23.3174ZM138.113 23.5283V24.0029C138.113 26.4287 138.377 28.3184 138.904 29.6719C139.449 31.0078 140.275 32.0273 141.383 32.7305C142.508 33.4336 143.976 33.7852 145.786 33.7852C146.735 33.7852 147.86 33.7061 149.161 33.5479C150.462 33.3896 151.534 33.2139 152.378 33.0205V34.4971C151.534 35.042 150.383 35.5166 148.924 35.9209C147.482 36.3252 146.006 36.5273 144.494 36.5273C140.645 36.5273 137.823 35.4902 136.03 33.416C134.255 31.3418 133.367 28.0107 133.367 23.4229C133.367 19.0986 134.272 15.873 136.083 13.7461C137.894 11.6191 140.478 10.5557 143.835 10.5557C150.181 10.5557 153.354 14.1592 153.354 21.3662V23.5283H138.113ZM143.835 12.665C142.007 12.665 140.601 13.4033 139.616 14.8799C138.649 16.3564 138.166 18.5361 138.166 21.4189H148.766C148.766 18.2725 148.361 16.0312 147.553 14.6953C146.744 13.3418 145.505 12.665 143.835 12.665ZM161.422 36H155.41V34.8135L157.546 34.207L163.426 24.5566C161.668 24.1523 160.297 23.3701 159.312 22.21C158.346 21.0498 157.862 19.626 157.862 17.9385C157.862 13.4561 161.36 11.2148 168.356 11.2148H179.114V12.4014L175.818 13.0605V34.1543L179.114 34.8135V36H168.198V34.8135L171.441 34.1279V25.3477H167.592L161.422 36ZM171.441 13.3242H168.752C166.607 13.3242 165.043 13.7285 164.059 14.5371C163.092 15.3281 162.608 16.5059 162.608 18.0703C162.608 21.5156 164.524 23.2383 168.356 23.2383H171.441V13.3242Z" fill="black"/>
<path d="M208.751 16.3564C212.917 16.3564 216.072 17.1914 218.217 18.8613C220.379 20.5137 221.46 22.957 221.46 26.1914C221.46 29.4434 220.361 31.8955 218.164 33.5479C215.967 35.1826 212.741 36 208.487 36H195.146V34.6025L199.681 33.917V2.75098L195.488 2.03906V0.641602H219.245L219.588 8.78906H217.874L216.371 3.43652C215.65 3.2959 214.569 3.17285 213.128 3.06738C211.687 2.96191 210.28 2.90918 208.909 2.90918H204.77V16.3564H208.751ZM216.213 26.4287C216.213 23.7041 215.501 21.7441 214.077 20.5488C212.671 19.3359 210.482 18.7295 207.512 18.7295H204.77V33.627H207.354C210.535 33.627 212.803 33.0732 214.156 31.9658C215.527 30.8584 216.213 29.0127 216.213 26.4287ZM227.683 33.7324C228.456 33.7324 229.168 32.6602 229.818 30.5156C230.486 28.3711 231.198 24.8818 231.954 20.0479L233.062 13.0605L229.607 12.4014V11.2148H249.541V12.4014L246.535 13.0605V34.1543L249.541 34.8135V36H238.862V34.8135L242.158 34.1543V13.4033H235.435L234.301 20.7598C233.51 25.8574 232.833 29.3203 232.271 31.1484C231.726 32.959 231.049 34.3125 230.24 35.209C229.432 36.0879 228.43 36.5273 227.234 36.5273C226.654 36.5273 226.118 36.4307 225.626 36.2373C225.151 36.0615 224.791 35.8682 224.545 35.6572L224.387 31.3594H225.573L226.391 32.7568C226.496 32.9502 226.663 33.1611 226.892 33.3896C227.138 33.6182 227.401 33.7324 227.683 33.7324ZM289.092 23.4756C289.092 32.1768 285.225 36.5273 277.49 36.5273C273.887 36.5273 271.145 35.499 269.264 33.4424C267.383 31.3857 266.372 28.3799 266.231 24.4248H259.429V34.1543L262.435 34.8135V36H251.756V34.8135L255.052 34.1543V13.0605L251.756 12.4014V11.2148H262.435V12.4014L259.429 13.0605V22.2363H266.231C266.407 18.4395 267.444 15.5479 269.343 13.5615C271.241 11.5576 274.027 10.5557 277.701 10.5557C281.463 10.5557 284.302 11.6455 286.218 13.8252C288.134 15.9873 289.092 19.2041 289.092 23.4756ZM284.346 23.4756C284.346 19.6787 283.792 16.9277 282.685 15.2227C281.577 13.5176 279.846 12.665 277.49 12.665C275.188 12.665 273.518 13.4824 272.48 15.1172C271.461 16.752 270.951 19.5381 270.951 23.4756C270.951 27.4658 271.47 30.2959 272.507 31.9658C273.562 33.6182 275.223 34.4443 277.49 34.4443C279.811 34.4443 281.533 33.583 282.658 31.8604C283.783 30.1377 284.346 27.3428 284.346 23.4756ZM294.523 12.4014V11.2148H313.824V12.4014L310.818 13.0605V34.1543L314.668 34.5762L314.22 46.4414H312.506L310.212 36H292.862L290.568 46.4414H288.854L288.406 34.5762L292.309 34.0752C293.732 31.3682 294.937 28.1953 295.921 24.5566C296.923 20.9004 297.564 17.0684 297.846 13.0605L294.523 12.4014ZM295.077 33.8115H306.441V13.0605H300.113C299.885 16.9102 299.331 20.6367 298.452 24.2402C297.591 27.8262 296.466 31.0166 295.077 33.8115Z" fill="#D67E34"/>
</svg>
