<svg width="334" height="48" viewBox="0 0 334 48" fill="none" xmlns="http://www.w3.org/2000/svg">
<path d="M0.555664 36V34.6025L5.09082 33.8906V2.72461L0.555664 2.03906V0.641602H14.7148V2.03906L10.1797 2.72461V16.6201H26.8174V2.72461L22.2822 2.03906V0.641602H36.415V2.03906L31.8799 2.72461V33.8906L36.415 34.6025V36H22.2822V34.6025L26.8174 33.8906V18.9932H10.1797V33.8906L14.7148 34.6025V36H0.555664ZM50.2842 10.6611C52.9912 10.6611 54.9775 11.2148 56.2432 12.3223C57.5264 13.4297 58.168 15.126 58.168 17.4111V34.1543L61.2529 34.8135V36H54.4502L53.9492 33.5215C51.9453 35.5254 49.3877 36.5273 46.2764 36.5273C42.04 36.5273 39.9219 34.0664 39.9219 29.1445C39.9219 27.4922 40.2383 26.1299 40.8711 25.0576C41.5215 23.9678 42.5498 23.1416 43.9561 22.5791C45.3623 21.999 47.4014 21.6826 50.0732 21.6299L53.791 21.5244V17.6484C53.791 15.9434 53.4746 14.6865 52.8418 13.8779C52.2266 13.0693 51.2686 12.665 49.9678 12.665C48.21 12.665 46.6016 13.0781 45.1426 13.9043L44.2461 16.9893H42.7695V11.584C45.6172 10.9688 48.1221 10.6611 50.2842 10.6611ZM53.791 23.3701L50.3369 23.4756C47.9814 23.5635 46.3818 24.0205 45.5381 24.8467C44.7119 25.6729 44.2988 27.0527 44.2988 28.9863C44.2988 32.0801 45.5557 33.627 48.0693 33.627C49.2646 33.627 50.293 33.4951 51.1543 33.2314C52.0332 32.9502 52.9121 32.5986 53.791 32.1768V23.3701ZM62.9404 36V34.8135L66.2363 34.1543V13.0605L62.9404 12.4014V11.2148H73.6191V12.4014L70.6133 13.0605V33.8115H80.5801V13.0605L77.2842 12.4014V11.2148H87.9629V12.4014L84.957 13.0605V33.8115H94.8975V13.0605L91.6016 12.4014V11.2148H102.28V12.4014L99.2744 13.0605V34.1543L102.57 34.8135V36H62.9404ZM115.886 10.6611C118.593 10.6611 120.579 11.2148 121.845 12.3223C123.128 13.4297 123.77 15.126 123.77 17.4111V34.1543L126.854 34.8135V36H120.052L119.551 33.5215C117.547 35.5254 114.989 36.5273 111.878 36.5273C107.642 36.5273 105.523 34.0664 105.523 29.1445C105.523 27.4922 105.84 26.1299 106.473 25.0576C107.123 23.9678 108.151 23.1416 109.558 22.5791C110.964 21.999 113.003 21.6826 115.675 21.6299L119.393 21.5244V17.6484C119.393 15.9434 119.076 14.6865 118.443 13.8779C117.828 13.0693 116.87 12.665 115.569 12.665C113.812 12.665 112.203 13.0781 110.744 13.9043L109.848 16.9893H108.371V11.584C111.219 10.9688 113.724 10.6611 115.886 10.6611ZM119.393 23.3701L115.938 23.4756C113.583 23.5635 111.983 24.0205 111.14 24.8467C110.313 25.6729 109.9 27.0527 109.9 28.9863C109.9 32.0801 111.157 33.627 113.671 33.627C114.866 33.627 115.895 33.4951 116.756 33.2314C117.635 32.9502 118.514 32.5986 119.393 32.1768V23.3701Z" fill="black"/>
<path d="M142.675 36V34.6025L147.21 33.8906V2.72461L142.675 2.03906V0.641602H156.834V2.03906L152.299 2.72461V28.2744L168.937 3.7793V2.72461L164.401 2.03906V0.641602H178.534V2.03906L173.999 2.72461V33.8906L178.534 34.6025V36H164.401V34.6025L168.937 33.8906V7.99805L152.299 32.4932V33.8906L156.834 34.6025V36H142.675ZM202.449 34.4971C201.588 35.1299 200.401 35.6309 198.89 36C197.378 36.3516 195.831 36.5273 194.249 36.5273C186.216 36.5273 182.199 32.1592 182.199 23.4229C182.199 19.292 183.219 16.1191 185.258 13.9043C187.314 11.6719 190.25 10.5557 194.064 10.5557C196.438 10.5557 199.03 10.8281 201.843 11.373V18.2812H200.393L199.259 13.9043C197.8 13.0781 196.051 12.665 194.012 12.665C189.301 12.665 186.945 16.251 186.945 23.4229C186.945 27.1494 187.657 29.8125 189.081 31.4121C190.522 32.9941 192.746 33.7852 195.752 33.7852C198.318 33.7852 200.551 33.4951 202.449 32.915V34.4971ZM226.944 11.2148V18.2812H225.494L224.36 13.9043C222.409 13.5703 220.66 13.4033 219.113 13.4033H218.111V34.1543L221.645 34.8135V36H209.911V34.8135L213.734 34.1543V13.4033H212.759C211.212 13.4033 209.463 13.5703 207.512 13.9043L206.378 18.2812H204.928V11.2148H226.944ZM251.967 23.4756C251.967 32.1768 248.1 36.5273 240.365 36.5273C236.639 36.5273 233.826 35.4111 231.928 33.1787C230.029 30.9463 229.08 27.7119 229.08 23.4756C229.08 19.292 230.029 16.0928 231.928 13.8779C233.826 11.6631 236.709 10.5557 240.576 10.5557C244.338 10.5557 247.177 11.6455 249.093 13.8252C251.009 15.9873 251.967 19.2041 251.967 23.4756ZM247.221 23.4756C247.221 19.6787 246.667 16.9277 245.56 15.2227C244.452 13.5176 242.721 12.665 240.365 12.665C238.062 12.665 236.393 13.4824 235.355 15.1172C234.336 16.752 233.826 19.5381 233.826 23.4756C233.826 27.4658 234.345 30.2959 235.382 31.9658C236.437 33.6182 238.098 34.4443 240.365 34.4443C242.686 34.4443 244.408 33.583 245.533 31.8604C246.658 30.1377 247.221 27.3428 247.221 23.4756ZM258.031 13.0605L255.21 12.4014V11.2148H262.171L262.224 12.665C262.962 12.0322 263.946 11.5225 265.177 11.1357C266.425 10.749 267.69 10.5557 268.974 10.5557C272.138 10.5557 274.581 11.6543 276.304 13.8516C278.044 16.0488 278.914 19.2041 278.914 23.3174C278.914 27.5186 277.965 30.7705 276.066 33.0732C274.186 35.376 271.461 36.5273 267.893 36.5273C265.906 36.5273 264.017 36.334 262.224 35.9473C262.329 37.2129 262.382 38.2061 262.382 38.9268V45.624L266.706 46.2568V47.4961H254.894V46.2568L258.031 45.624V13.0605ZM274.168 23.3174C274.168 19.9424 273.614 17.4375 272.507 15.8027C271.417 14.1504 269.756 13.3242 267.523 13.3242C265.467 13.3242 263.753 13.6143 262.382 14.1943V33.9961C263.946 34.2949 265.66 34.4443 267.523 34.4443C271.953 34.4443 274.168 30.7354 274.168 23.3174ZM285.295 13.0605L281.999 12.4014V11.2148H292.678V12.4014L289.672 13.0605V28.6436L301.273 16.0928V13.0605L297.978 12.4014V11.2148H308.656V12.4014L305.65 13.0605V34.1543L308.656 34.8135V36H297.978V34.8135L301.273 34.1543V19.0723L289.672 31.623V34.1543L292.678 34.8135V36H281.999V34.8135L285.295 34.1543V13.0605ZM316.092 36H310.08V34.8135L312.216 34.207L318.096 24.5566C316.338 24.1523 314.967 23.3701 313.982 22.21C313.016 21.0498 312.532 19.626 312.532 17.9385C312.532 13.4561 316.03 11.2148 323.026 11.2148H333.784V12.4014L330.488 13.0605V34.1543L333.784 34.8135V36H322.868V34.8135L326.111 34.1279V25.3477H322.262L316.092 36ZM326.111 13.3242H323.422C321.277 13.3242 319.713 13.7285 318.729 14.5371C317.762 15.3281 317.278 16.5059 317.278 18.0703C317.278 21.5156 319.194 23.2383 323.026 23.2383H326.111V13.3242Z" fill="#D67E34"/>
</svg>
