<svg width="276" height="46" viewBox="0 0 276 46" fill="none" xmlns="http://www.w3.org/2000/svg">
<g filter="url(#filter0_d_2_141)">
<path d="M0.555664 36V34.6025L5.09082 33.8906V2.72461L0.555664 2.03906V0.641602H14.7148V2.03906L10.1797 2.72461V16.6201H26.8174V2.72461L22.2822 2.03906V0.641602H36.415V2.03906L31.8799 2.72461V33.8906L36.415 34.6025V36H22.2822V34.6025L26.8174 33.8906V18.9932H10.1797V33.8906L14.7148 34.6025V36H0.555664ZM50.2842 10.6611C52.9912 10.6611 54.9775 11.2148 56.2432 12.3223C57.5264 13.4297 58.168 15.126 58.168 17.4111V34.1543L61.2529 34.8135V36H54.4502L53.9492 33.5215C51.9453 35.5254 49.3877 36.5273 46.2764 36.5273C42.04 36.5273 39.9219 34.0664 39.9219 29.1445C39.9219 27.4922 40.2383 26.1299 40.8711 25.0576C41.5215 23.9678 42.5498 23.1416 43.9561 22.5791C45.3623 21.999 47.4014 21.6826 50.0732 21.6299L53.791 21.5244V17.6484C53.791 15.9434 53.4746 14.6865 52.8418 13.8779C52.2266 13.0693 51.2686 12.665 49.9678 12.665C48.21 12.665 46.6016 13.0781 45.1426 13.9043L44.2461 16.9893H42.7695V11.584C45.6172 10.9688 48.1221 10.6611 50.2842 10.6611ZM53.791 23.3701L50.3369 23.4756C47.9814 23.5635 46.3818 24.0205 45.5381 24.8467C44.7119 25.6729 44.2988 27.0527 44.2988 28.9863C44.2988 32.0801 45.5557 33.627 48.0693 33.627C49.2646 33.627 50.293 33.4951 51.1543 33.2314C52.0332 32.9502 52.9121 32.5986 53.791 32.1768V23.3701ZM62.9404 36V34.8135L66.2363 34.1543V13.0605L62.9404 12.4014V11.2148H73.6191V12.4014L70.6133 13.0605V33.8115H80.5801V13.0605L77.2842 12.4014V11.2148H87.9629V12.4014L84.957 13.0605V33.8115H94.8975V13.0605L91.6016 12.4014V11.2148H102.28V12.4014L99.2744 13.0605V34.1543L102.57 34.8135V36H62.9404ZM110.48 23.5283V24.0029C110.48 26.4287 110.744 28.3184 111.271 29.6719C111.816 31.0078 112.643 32.0273 113.75 32.7305C114.875 33.4336 116.343 33.7852 118.153 33.7852C119.103 33.7852 120.228 33.7061 121.528 33.5479C122.829 33.3896 123.901 33.2139 124.745 33.0205V34.4971C123.901 35.042 122.75 35.5166 121.291 35.9209C119.85 36.3252 118.373 36.5273 116.861 36.5273C113.012 36.5273 110.19 35.4902 108.397 33.416C106.622 31.3418 105.734 28.0107 105.734 23.4229C105.734 19.0986 106.64 15.873 108.45 13.7461C110.261 11.6191 112.845 10.5557 116.202 10.5557C122.548 10.5557 125.721 14.1592 125.721 21.3662V23.5283H110.48ZM116.202 12.665C114.374 12.665 112.968 13.4033 111.983 14.8799C111.017 16.3564 110.533 18.5361 110.533 21.4189H121.133C121.133 18.2725 120.729 16.0312 119.92 14.6953C119.111 13.3418 117.872 12.665 116.202 12.665ZM145.391 13.0605L142.358 12.4014V11.2148H151.139L158.258 29.1709L165.535 11.2148H174.025V12.4014L171.02 13.0605V34.1543L174.025 34.8135V36H163.874V34.8135L166.643 34.1543V14.4053L157.889 36H156.465L147.922 14.4844V34.1543L150.4 34.8135V36H142.358V34.8135L145.391 34.1543V13.0605ZM182.146 23.5283V24.0029C182.146 26.4287 182.41 28.3184 182.938 29.6719C183.482 31.0078 184.309 32.0273 185.416 32.7305C186.541 33.4336 188.009 33.7852 189.819 33.7852C190.769 33.7852 191.894 33.7061 193.194 33.5479C194.495 33.3896 195.567 33.2139 196.411 33.0205V34.4971C195.567 35.042 194.416 35.5166 192.957 35.9209C191.516 36.3252 190.039 36.5273 188.527 36.5273C184.678 36.5273 181.856 35.4902 180.063 33.416C178.288 31.3418 177.4 28.0107 177.4 23.4229C177.4 19.0986 178.306 15.873 180.116 13.7461C181.927 11.6191 184.511 10.5557 187.868 10.5557C194.214 10.5557 197.387 14.1592 197.387 21.3662V23.5283H182.146ZM187.868 12.665C186.04 12.665 184.634 13.4033 183.649 14.8799C182.683 16.3564 182.199 18.5361 182.199 21.4189H192.799C192.799 18.2725 192.395 16.0312 191.586 14.6953C190.777 13.3418 189.538 12.665 187.868 12.665ZM203.557 13.0605L200.261 12.4014V11.2148H210.939V12.4014L207.934 13.0605V22.2363H219.535V13.0605L216.239 12.4014V11.2148H226.918V12.4014L223.912 13.0605V34.1543L226.918 34.8135V36H216.239V34.8135L219.535 34.1543V24.4248H207.934V34.1543L210.939 34.8135V36H200.261V34.8135L203.557 34.1543V13.0605ZM266.469 23.4756C266.469 32.1768 262.602 36.5273 254.867 36.5273C251.264 36.5273 248.521 35.499 246.641 33.4424C244.76 31.3857 243.749 28.3799 243.608 24.4248H236.806V34.1543L239.812 34.8135V36H229.133V34.8135L232.429 34.1543V13.0605L229.133 12.4014V11.2148H239.812V12.4014L236.806 13.0605V22.2363H243.608C243.784 18.4395 244.821 15.5479 246.72 13.5615C248.618 11.5576 251.404 10.5557 255.078 10.5557C258.84 10.5557 261.679 11.6455 263.595 13.8252C265.511 15.9873 266.469 19.2041 266.469 23.4756ZM261.723 23.4756C261.723 19.6787 261.169 16.9277 260.062 15.2227C258.954 13.5176 257.223 12.665 254.867 12.665C252.564 12.665 250.895 13.4824 249.857 15.1172C248.838 16.752 248.328 19.5381 248.328 23.4756C248.328 27.4658 248.847 30.2959 249.884 31.9658C250.938 33.6182 252.6 34.4443 254.867 34.4443C257.188 34.4443 258.91 33.583 260.035 31.8604C261.16 30.1377 261.723 27.3428 261.723 23.4756Z" fill="white"/>
</g>
<defs>
<filter id="filter0_d_2_141" x="0.555664" y="0.641602" width="274.913" height="44.8857" filterUnits="userSpaceOnUse" color-interpolation-filters="sRGB">
<feFlood flood-opacity="0" result="BackgroundImageFix"/>
<feColorMatrix in="SourceAlpha" type="matrix" values="0 0 0 0 0 0 0 0 0 0 0 0 0 0 0 0 0 0 127 0" result="hardAlpha"/>
<feOffset dx="5" dy="5"/>
<feGaussianBlur stdDeviation="2"/>
<feColorMatrix type="matrix" values="0 0 0 0 0 0 0 0 0 0 0 0 0 0 0 0 0 0 0.25 0"/>
<feBlend mode="normal" in2="BackgroundImageFix" result="effect1_dropShadow_2_141"/>
<feBlend mode="normal" in="SourceGraphic" in2="effect1_dropShadow_2_141" result="shape"/>
</filter>
</defs>
</svg>
