<svg width="545" height="76" viewBox="0 0 597 108" fill="none" xmlns="http://www.w3.org/2000/svg">
<path d="M6.43945 18.9375C6.43945 24.4049 7.35352 28.3659 9.18164 30.8203C11.0098 33.2747 13.8704 34.502 17.7637 34.502C21.64 34.502 24.5007 33.2747 26.3457 30.8203C28.1908 28.3659 29.1133 24.4049 29.1133 18.9375C29.1133 13.5039 28.1908 9.59375 26.3457 7.20703C24.5176 4.80339 21.6569 3.60156 17.7637 3.60156C13.8535 3.60156 10.9844 4.80339 9.15625 7.20703C7.34505 9.59375 6.43945 13.5039 6.43945 18.9375ZM1.13281 18.9375C1.13281 7.35938 6.67643 1.57031 17.7637 1.57031C23.248 1.57031 27.3952 3.04297 30.2051 5.98828C33.015 8.91667 34.4199 13.2331 34.4199 18.9375C34.4199 24.7266 32.998 29.1022 30.1543 32.0645C27.3105 35.0267 23.1803 36.5078 17.7637 36.5078C12.3639 36.5078 8.24219 35.0352 5.39844 32.0898C2.55469 29.1276 1.13281 24.7435 1.13281 18.9375ZM58.541 12.1328V18.9375H57.1445L56.0527 14.7227C54.1738 14.401 52.4896 14.2402 51 14.2402H50.0352V34.2227L53.4375 34.8574V36H42.1387V34.8574L45.8203 34.2227V14.2402H44.8809C43.3913 14.2402 41.707 14.401 39.8281 14.7227L38.7363 18.9375H37.3398V12.1328H58.541ZM63.4414 13.9102L60.2676 13.2754V12.1328H85.9375V13.2754L83.043 13.9102V34.2227L85.9375 34.8574V36H75.6543V34.8574L78.8281 34.2227V14.2402H67.6562V34.2227L70.5508 34.8574V36H60.2676V34.8574L63.4414 34.2227V13.9102ZM91.0156 13.9102L88.2988 13.2754V12.1328H95.002L95.0527 13.5293C95.7637 12.9199 96.7116 12.429 97.8965 12.0566C99.0983 11.6842 100.317 11.498 101.553 11.498C104.6 11.498 106.952 12.556 108.611 14.6719C110.287 16.7878 111.125 19.8262 111.125 23.7871C111.125 27.8327 110.211 30.9642 108.383 33.1816C106.572 35.3991 103.948 36.5078 100.512 36.5078C98.599 36.5078 96.7793 36.3216 95.0527 35.9492C95.1543 37.168 95.2051 38.1243 95.2051 38.8184V45.2676L99.3691 45.877V47.0703H87.9941V45.877L91.0156 45.2676V13.9102ZM106.555 23.7871C106.555 20.5371 106.021 18.125 104.955 16.5508C103.906 14.9596 102.306 14.1641 100.156 14.1641C98.1758 14.1641 96.5254 14.4434 95.2051 15.002V34.0703C96.7116 34.3581 98.362 34.502 100.156 34.502C104.422 34.502 106.555 30.9303 106.555 23.7871ZM124.963 11.5996C127.57 11.5996 129.482 12.1328 130.701 13.1992C131.937 14.2656 132.555 15.8991 132.555 18.0996V34.2227L135.525 34.8574V36H128.975L128.492 33.6133C126.562 35.543 124.1 36.5078 121.104 36.5078C117.024 36.5078 114.984 34.138 114.984 29.3984C114.984 27.8073 115.289 26.4954 115.898 25.4629C116.525 24.4134 117.515 23.6178 118.869 23.0762C120.223 22.5176 122.187 22.2129 124.76 22.1621L128.34 22.0605V18.3281C128.34 16.6862 128.035 15.4759 127.426 14.6973C126.833 13.9186 125.911 13.5293 124.658 13.5293C122.965 13.5293 121.417 13.9271 120.012 14.7227L119.148 17.6934H117.727V12.4883C120.469 11.8958 122.881 11.5996 124.963 11.5996ZM128.34 23.8379L125.014 23.9395C122.745 24.0241 121.205 24.4642 120.393 25.2598C119.597 26.0553 119.199 27.3841 119.199 29.2461C119.199 32.2253 120.41 33.7148 122.83 33.7148C123.981 33.7148 124.971 33.5879 125.801 33.334C126.647 33.0632 127.493 32.7246 128.34 32.3184V23.8379ZM150.1 23.6602C151.538 23.8971 152.723 24.498 153.654 25.4629C154.585 26.4108 155.051 27.5365 155.051 28.8398C155.051 33.9518 151.53 36.5078 144.488 36.5078C143.236 36.5078 141.924 36.3301 140.553 35.9746C139.199 35.6191 138.259 35.196 137.734 34.7051V33.1816C139.292 33.6387 141.162 33.8672 143.346 33.8672C145.699 33.8672 147.476 33.4779 148.678 32.6992C149.88 31.9206 150.48 30.668 150.48 28.9414C150.48 27.6549 150.007 26.6393 149.059 25.8945C148.111 25.1328 146.875 24.752 145.352 24.752H142.305V22.6445H145.377C146.833 22.6445 147.984 22.2552 148.83 21.4766C149.693 20.6979 150.125 19.6146 150.125 18.2266C150.125 16.6862 149.744 15.5182 148.982 14.7227C148.238 13.9271 146.968 13.5293 145.174 13.5293C144.48 13.5293 143.76 13.6393 143.016 13.8594C142.271 14.0794 141.653 14.3672 141.162 14.7227L140.248 18.1758H138.852V12.2852C141.306 11.7604 143.473 11.498 145.352 11.498C148.551 11.498 150.878 12.0143 152.334 13.0469C153.79 14.0794 154.518 15.696 154.518 17.8965C154.518 19.2676 154.111 20.4271 153.299 21.375C152.486 22.306 151.42 23.0169 150.1 23.5078V23.6602ZM161.754 13.2754V12.1328H180.34V13.2754L177.445 13.9102V34.2227L181.152 34.6289L180.721 46.0547H179.07L176.861 36H160.154L157.945 46.0547H156.295L155.863 34.6289L159.621 34.1465C160.992 31.5397 162.152 28.4844 163.1 24.9805C164.064 21.4596 164.682 17.7695 164.953 13.9102L161.754 13.2754ZM162.287 33.8926H173.23V13.9102H167.137C166.917 17.6172 166.383 21.2057 165.537 24.6758C164.708 28.1289 163.624 31.2012 162.287 33.8926ZM186.434 13.9102L183.26 13.2754V12.1328H193.543V13.2754L190.648 13.9102V22.7461H201.82V13.9102L198.646 13.2754V12.1328H208.93V13.2754L206.035 13.9102V34.2227L208.93 34.8574V36H198.646V34.8574L201.82 34.2227V24.8535H190.648V34.2227L193.543 34.8574V36H183.26V34.8574L186.434 34.2227V13.9102ZM215.201 47.2227C213.881 47.2227 212.577 47.0703 211.291 46.7656V41.6113H212.484L213.322 44.0488C213.847 44.4382 214.575 44.6328 215.506 44.6328C216.386 44.6328 217.199 44.3789 217.943 43.8711C218.688 43.3633 219.365 42.61 219.975 41.6113C220.601 40.6126 221.38 38.8268 222.311 36.2539L213.221 13.9102L210.783 13.2754V12.1328H221.854V13.2754L218.096 13.9609L224.545 30.6426L230.791 13.9102L227.059 13.2754V12.1328H235.945V13.2754L233.457 13.8086L224.139 37.498C223.038 40.291 222.082 42.2969 221.27 43.5156C220.457 44.7344 219.56 45.6569 218.578 46.2832C217.596 46.9095 216.471 47.2227 215.201 47.2227ZM240.262 13.9102L237.088 13.2754V12.1328H247.371V13.2754L244.477 13.9102V28.916L255.648 16.8301V13.9102L252.475 13.2754V12.1328H262.758V13.2754L259.863 13.9102V34.2227L262.758 34.8574V36H252.475V34.8574L255.648 34.2227V19.6992L244.477 31.7852V34.2227L247.371 34.8574V36H237.088V34.8574L240.262 34.2227V13.9102ZM249.961 7.51172C246.863 7.51172 244.553 6.95312 243.029 5.83594C241.523 4.71875 240.727 2.90755 240.643 0.402344H244.807C244.908 2.14583 245.399 3.46615 246.279 4.36328C247.16 5.26042 248.387 5.70898 249.961 5.70898C251.535 5.70898 252.762 5.26042 253.643 4.36328C254.523 3.46615 255.014 2.14583 255.115 0.402344H259.279C259.195 2.92448 258.391 4.74414 256.867 5.86133C255.361 6.96159 253.059 7.51172 249.961 7.51172ZM285.939 12.1328V18.9375H284.543L283.451 14.7227C281.572 14.401 279.888 14.2402 278.398 14.2402H277.434V34.2227L280.836 34.8574V36H269.537V34.8574L273.219 34.2227V14.2402H272.279C270.79 14.2402 269.105 14.401 267.227 14.7227L266.135 18.9375H264.738V12.1328H285.939ZM293.328 23.9902V24.4473C293.328 26.7832 293.582 28.6029 294.09 29.9062C294.615 31.1927 295.41 32.1745 296.477 32.8516C297.56 33.5286 298.973 33.8672 300.717 33.8672C301.631 33.8672 302.714 33.791 303.967 33.6387C305.219 33.4863 306.252 33.3171 307.064 33.1309V34.5527C306.252 35.0775 305.143 35.5345 303.738 35.9238C302.35 36.3132 300.928 36.5078 299.473 36.5078C295.766 36.5078 293.049 35.5091 291.322 33.5117C289.613 31.5143 288.758 28.3066 288.758 23.8887C288.758 19.7246 289.63 16.6185 291.373 14.5703C293.117 12.5221 295.605 11.498 298.838 11.498C304.949 11.498 308.004 14.9681 308.004 21.9082V23.9902H293.328ZM298.838 13.5293C297.077 13.5293 295.723 14.2402 294.775 15.6621C293.844 17.084 293.379 19.1829 293.379 21.959H303.586C303.586 18.929 303.197 16.7708 302.418 15.4844C301.639 14.181 300.446 13.5293 298.838 13.5293ZM323.771 36V34.8574L326.945 34.2227V13.9102L323.771 13.2754V12.1328H333.979C337.719 12.1328 340.36 12.5983 341.9 13.5293C343.458 14.4603 344.236 15.916 344.236 17.8965C344.236 19.5215 343.771 20.7741 342.84 21.6543C341.926 22.5345 340.622 23.1693 338.93 23.5586V23.7617C341.079 23.9987 342.73 24.5488 343.881 25.4121C345.032 26.2754 345.607 27.5703 345.607 29.2969C345.607 31.6836 344.736 33.4017 342.992 34.4512C341.266 35.4837 338.456 36 334.562 36H323.771ZM334.182 33.9688C336.687 33.9688 338.456 33.5964 339.488 32.8516C340.521 32.1068 341.037 30.888 341.037 29.1953C341.037 27.5872 340.487 26.4447 339.387 25.7676C338.303 25.0736 336.458 24.7266 333.852 24.7266H331.16V33.9688H334.182ZM331.16 22.6953H333.852C335.883 22.6953 337.355 22.3568 338.27 21.6797C339.201 21.0026 339.666 19.8516 339.666 18.2266C339.666 16.8555 339.192 15.8398 338.244 15.1797C337.313 14.5026 335.815 14.1641 333.75 14.1641H331.16V22.6953ZM384.43 23.9395C384.43 32.3184 380.706 36.5078 373.258 36.5078C369.669 36.5078 366.961 35.4329 365.133 33.2832C363.305 31.1335 362.391 28.0189 362.391 23.9395C362.391 19.9108 363.305 16.8301 365.133 14.6973C366.961 12.5645 369.737 11.498 373.461 11.498C377.083 11.498 379.817 12.5475 381.662 14.6465C383.507 16.7285 384.43 19.8262 384.43 23.9395ZM379.859 23.9395C379.859 20.2832 379.326 17.6341 378.26 15.9922C377.193 14.3503 375.526 13.5293 373.258 13.5293C371.04 13.5293 369.432 14.3164 368.434 15.8906C367.452 17.4648 366.961 20.1478 366.961 23.9395C366.961 27.7819 367.46 30.5072 368.459 32.1152C369.475 33.7064 371.074 34.502 373.258 34.502C375.492 34.502 377.151 33.6725 378.234 32.0137C379.318 30.3548 379.859 27.6634 379.859 23.9395ZM390.777 13.2754V12.1328H409.363V13.2754L406.469 13.9102V34.2227L410.176 34.6289L409.744 46.0547H408.094L405.885 36H389.178L386.969 46.0547H385.318L384.887 34.6289L388.645 34.1465C390.016 31.5397 391.175 28.4844 392.123 24.9805C393.088 21.4596 393.706 17.7695 393.977 13.9102L390.777 13.2754ZM391.311 33.8926H402.254V13.9102H396.16C395.94 17.6172 395.407 21.2057 394.561 24.6758C393.731 28.1289 392.648 31.2012 391.311 33.8926ZM415.457 13.9102L412.283 13.2754V12.1328H422.566V13.2754L419.672 13.9102V22.7461H430.844V13.9102L427.67 13.2754V12.1328H437.953V13.2754L435.059 13.9102V34.2227L437.953 34.8574V36H427.67V34.8574L430.844 34.2227V24.8535H419.672V34.2227L422.566 34.8574V36H412.283V34.8574L415.457 34.2227V13.9102ZM463.191 23.9395C463.191 32.3184 459.467 36.5078 452.02 36.5078C448.431 36.5078 445.723 35.4329 443.895 33.2832C442.066 31.1335 441.152 28.0189 441.152 23.9395C441.152 19.9108 442.066 16.8301 443.895 14.6973C445.723 12.5645 448.499 11.498 452.223 11.498C455.845 11.498 458.579 12.5475 460.424 14.6465C462.269 16.7285 463.191 19.8262 463.191 23.9395ZM458.621 23.9395C458.621 20.2832 458.088 17.6341 457.021 15.9922C455.955 14.3503 454.288 13.5293 452.02 13.5293C449.802 13.5293 448.194 14.3164 447.195 15.8906C446.214 17.4648 445.723 20.1478 445.723 23.9395C445.723 27.7819 446.222 30.5072 447.221 32.1152C448.236 33.7064 449.836 34.502 452.02 34.502C454.254 34.502 455.913 33.6725 456.996 32.0137C458.079 30.3548 458.621 27.6634 458.621 23.9395ZM468.27 13.9102L465.35 13.2754V12.1328H473.805L480.66 29.4238L487.668 12.1328H495.844V13.2754L492.949 13.9102V34.2227L495.844 34.8574V36H486.068V34.8574L488.734 34.2227V15.2051L480.305 36H478.934L470.707 15.2812V34.2227L473.094 34.8574V36H465.35V34.8574L468.27 34.2227V13.9102ZM514.176 13.9102L511.002 13.2754V12.1328H521.285V13.2754L518.391 13.9102V28.916L529.562 16.8301V13.9102L526.389 13.2754V12.1328H536.672V13.2754L533.777 13.9102V34.2227L536.672 34.8574V36H526.389V34.8574L529.562 34.2227V19.6992L518.391 31.7852V34.2227L521.285 34.8574V36H511.002V34.8574L514.176 34.2227V13.9102ZM551.729 23.6602C553.167 23.8971 554.352 24.498 555.283 25.4629C556.214 26.4108 556.68 27.5365 556.68 28.8398C556.68 33.9518 553.159 36.5078 546.117 36.5078C544.865 36.5078 543.553 36.3301 542.182 35.9746C540.827 35.6191 539.888 35.196 539.363 34.7051V33.1816C540.921 33.6387 542.791 33.8672 544.975 33.8672C547.327 33.8672 549.105 33.4779 550.307 32.6992C551.508 31.9206 552.109 30.668 552.109 28.9414C552.109 27.6549 551.635 26.6393 550.688 25.8945C549.74 25.1328 548.504 24.752 546.98 24.752H543.934V22.6445H547.006C548.462 22.6445 549.613 22.2552 550.459 21.4766C551.322 20.6979 551.754 19.6146 551.754 18.2266C551.754 16.6862 551.373 15.5182 550.611 14.7227C549.867 13.9271 548.597 13.5293 546.803 13.5293C546.109 13.5293 545.389 13.6393 544.645 13.8594C543.9 14.0794 543.282 14.3672 542.791 14.7227L541.877 18.1758H540.48V12.2852C542.935 11.7604 545.102 11.498 546.98 11.498C550.18 11.498 552.507 12.0143 553.963 13.0469C555.419 14.0794 556.146 15.696 556.146 17.8965C556.146 19.2676 555.74 20.4271 554.928 21.375C554.115 22.306 553.049 23.0169 551.729 23.5078V23.6602ZM20.4805 94.5527C19.651 95.1621 18.5085 95.6445 17.0527 96C15.597 96.3385 14.1074 96.5078 12.584 96.5078C4.84831 96.5078 0.980469 92.3014 0.980469 83.8887C0.980469 79.9108 1.96224 76.8555 3.92578 74.7227C5.90625 72.5729 8.73307 71.498 12.4062 71.498C14.6914 71.498 17.1882 71.7604 19.8965 72.2852V78.9375H18.5L17.4082 74.7227C16.0033 73.9271 14.319 73.5293 12.3555 73.5293C7.81901 73.5293 5.55078 76.9824 5.55078 83.8887C5.55078 87.4772 6.23633 90.0417 7.60742 91.582C8.99544 93.1055 11.1367 93.8672 14.0312 93.8672C16.5026 93.8672 18.6523 93.5879 20.4805 93.0293V94.5527ZM34.5723 71.5996C37.179 71.5996 39.0918 72.1328 40.3105 73.1992C41.5462 74.2656 42.1641 75.8991 42.1641 78.0996V94.2227L45.1348 94.8574V96H38.584L38.1016 93.6133C36.1719 95.543 33.709 96.5078 30.7129 96.5078C26.6335 96.5078 24.5938 94.138 24.5938 89.3984C24.5938 87.8073 24.8984 86.4954 25.5078 85.4629C26.1341 84.4134 27.1243 83.6178 28.4785 83.0762C29.8327 82.5176 31.7962 82.2129 34.3691 82.1621L37.9492 82.0605V78.3281C37.9492 76.6862 37.6445 75.4759 37.0352 74.6973C36.4427 73.9186 35.5202 73.5293 34.2676 73.5293C32.5749 73.5293 31.026 73.9271 29.6211 74.7227L28.7578 77.6934H27.3359V72.4883C30.0781 71.8958 32.4902 71.5996 34.5723 71.5996ZM37.9492 83.8379L34.623 83.9395C32.3548 84.0241 30.8145 84.4642 30.002 85.2598C29.2064 86.0553 28.8086 87.3841 28.8086 89.2461C28.8086 92.2253 30.0189 93.7148 32.4395 93.7148C33.5905 93.7148 34.5807 93.5879 35.4102 93.334C36.2565 93.0632 37.1029 92.7246 37.9492 92.3184V83.8379ZM49.9844 73.9102L47.0645 73.2754V72.1328H55.5195L62.375 89.4238L69.3828 72.1328H77.5586V73.2754L74.6641 73.9102V94.2227L77.5586 94.8574V96H67.7832V94.8574L70.4492 94.2227V75.2051L62.0195 96H60.6484L52.4219 75.2812V94.2227L54.8086 94.8574V96H47.0645V94.8574L49.9844 94.2227V73.9102ZM89.6699 93.9688C92.1074 93.9688 93.8255 93.5879 94.8242 92.8262C95.8398 92.0475 96.3477 90.8372 96.3477 89.1953C96.3477 87.5872 95.8483 86.4447 94.8496 85.7676C93.8509 85.0736 92.1243 84.7266 89.6699 84.7266H87.1055V93.9688H89.6699ZM90.2793 72.1328V73.2754L87.1055 73.9102V82.6953H90.127C93.8171 82.6953 96.5339 83.1947 98.2773 84.1934C100.038 85.1921 100.918 86.8171 100.918 89.0684C100.918 91.5905 100.08 93.3763 98.4043 94.4258C96.7285 95.4753 93.944 96 90.0508 96H79.7168V94.8574L82.8906 94.2227V73.9102L79.7168 73.2754V72.1328H90.2793ZM105.387 73.9102L102.213 73.2754V72.1328H112.496V73.2754L109.602 73.9102V94.2227L112.496 94.8574V96H102.213V94.8574L105.387 94.2227V73.9102ZM139.08 94.8574V96H128.264V94.8574L131.438 94.2734L125.928 85.8184L119.479 94.3242L122.754 94.8574V96H114.172V94.8574L116.939 94.4512L124.785 84.0918L117.879 73.9102L115.061 73.2754V72.1328H125.877V73.2754L122.703 73.9609L127.299 80.8164L132.58 73.9102L129.305 73.2754V72.1328H137.887V73.2754L135.145 73.8086L128.441 82.4922L136.287 94.3242L139.08 94.8574ZM156.396 93.8164C157.141 93.8164 157.827 92.7839 158.453 90.7188C159.096 88.6536 159.782 85.2936 160.51 80.6387L161.576 73.9102L158.25 73.2754V72.1328H177.445V73.2754L174.551 73.9102V94.2227L177.445 94.8574V96H167.162V94.8574L170.336 94.2227V74.2402H163.861L162.77 81.3242C162.008 86.2331 161.356 89.5677 160.814 91.3281C160.29 93.0716 159.638 94.375 158.859 95.2383C158.081 96.0846 157.116 96.5078 155.965 96.5078C155.406 96.5078 154.89 96.4147 154.416 96.2285C153.959 96.0592 153.612 95.873 153.375 95.6699L153.223 91.5312H154.365L155.152 92.877C155.254 93.0632 155.415 93.2663 155.635 93.4863C155.872 93.7064 156.126 93.8164 156.396 93.8164ZM183.717 107.223C182.396 107.223 181.093 107.07 179.807 106.766V101.611H181L181.838 104.049C182.363 104.438 183.09 104.633 184.021 104.633C184.902 104.633 185.714 104.379 186.459 103.871C187.204 103.363 187.881 102.61 188.49 101.611C189.117 100.613 189.895 98.8268 190.826 96.2539L181.736 73.9102L179.299 73.2754V72.1328H190.369V73.2754L186.611 73.9609L193.061 90.6426L199.307 73.9102L195.574 73.2754V72.1328H204.461V73.2754L201.973 73.8086L192.654 97.498C191.554 100.291 190.598 102.297 189.785 103.516C188.973 104.734 188.076 105.657 187.094 106.283C186.112 106.91 184.986 107.223 183.717 107.223ZM212.84 81.9844C212.84 83.0339 213.161 83.8971 213.805 84.5742C214.465 85.2513 215.362 85.5898 216.496 85.5898C218.206 85.5898 220.195 85.3105 222.463 84.752V73.9102L219.289 73.2754V72.1328H229.572V73.2754L226.678 73.9102V94.2227L229.572 94.8574V96H219.289V94.8574L222.463 94.2227V86.1738C220.618 87.071 219.086 87.6973 217.867 88.0527C216.665 88.3913 215.574 88.5605 214.592 88.5605C212.679 88.5605 211.206 88.002 210.174 86.8848C209.141 85.7676 208.625 84.1595 208.625 82.0605V73.9102L205.451 73.2754V72.1328H215.734V73.2754L212.84 73.9102V81.9844ZM231.705 96V94.8574L234.879 94.2227V73.9102L231.705 73.2754V72.1328H241.988V73.2754L239.094 73.9102V93.8926H248.691V73.9102L245.518 73.2754V72.1328H255.801V73.2754L252.906 73.9102V93.8926H262.479V73.9102L259.305 73.2754V72.1328H269.588V73.2754L266.693 73.9102V94.2227L269.867 94.8574V96H231.705ZM274.996 73.9102L271.822 73.2754V72.1328H282.105V73.2754L279.211 73.9102V88.916L290.383 76.8301V73.9102L287.209 73.2754V72.1328H297.492V73.2754L294.598 73.9102V94.2227L297.492 94.8574V96H287.209V94.8574L290.383 94.2227V79.6992L279.211 91.7852V94.2227L282.105 94.8574V96H271.822V94.8574L274.996 94.2227V73.9102ZM324.076 94.8574V96H313.26V94.8574L316.434 94.2734L310.924 85.8184L304.475 94.3242L307.75 94.8574V96H299.168V94.8574L301.936 94.4512L309.781 84.0918L302.875 73.9102L300.057 73.2754V72.1328H310.873V73.2754L307.699 73.9609L312.295 80.8164L317.576 73.9102L314.301 73.2754V72.1328H322.883V73.2754L320.141 73.8086L313.438 82.4922L321.283 94.3242L324.076 94.8574ZM341.57 73.9102L338.854 73.2754V72.1328H345.557L345.607 73.5293C346.318 72.9199 347.266 72.429 348.451 72.0566C349.653 71.6842 350.872 71.498 352.107 71.498C355.154 71.498 357.507 72.556 359.166 74.6719C360.842 76.7878 361.68 79.8262 361.68 83.7871C361.68 87.8327 360.766 90.9642 358.938 93.1816C357.126 95.3991 354.503 96.5078 351.066 96.5078C349.154 96.5078 347.334 96.3216 345.607 95.9492C345.709 97.168 345.76 98.1243 345.76 98.8184V105.268L349.924 105.877V107.07H338.549V105.877L341.57 105.268V73.9102ZM357.109 83.7871C357.109 80.5371 356.576 78.125 355.51 76.5508C354.46 74.9596 352.861 74.1641 350.711 74.1641C348.73 74.1641 347.08 74.4434 345.76 75.002V94.0703C347.266 94.3581 348.917 94.502 350.711 94.502C354.977 94.502 357.109 90.9303 357.109 83.7871ZM370.312 83.9902V84.4473C370.312 86.7832 370.566 88.6029 371.074 89.9062C371.599 91.1927 372.395 92.1745 373.461 92.8516C374.544 93.5286 375.958 93.8672 377.701 93.8672C378.615 93.8672 379.699 93.791 380.951 93.6387C382.204 93.4863 383.236 93.3171 384.049 93.1309V94.5527C383.236 95.0775 382.128 95.5345 380.723 95.9238C379.335 96.3132 377.913 96.5078 376.457 96.5078C372.75 96.5078 370.033 95.5091 368.307 93.5117C366.597 91.5143 365.742 88.3066 365.742 83.8887C365.742 79.7246 366.614 76.6185 368.357 74.5703C370.101 72.5221 372.589 71.498 375.822 71.498C381.933 71.498 384.988 74.9681 384.988 81.9082V83.9902H370.312ZM375.822 73.5293C374.062 73.5293 372.708 74.2402 371.76 75.6621C370.829 77.084 370.363 79.1829 370.363 81.959H380.57C380.57 78.929 380.181 76.7708 379.402 75.4844C378.624 74.181 377.43 73.5293 375.822 73.5293ZM409.617 94.5527C408.788 95.1621 407.645 95.6445 406.189 96C404.734 96.3385 403.244 96.5078 401.721 96.5078C393.985 96.5078 390.117 92.3014 390.117 83.8887C390.117 79.9108 391.099 76.8555 393.062 74.7227C395.043 72.5729 397.87 71.498 401.543 71.498C403.828 71.498 406.325 71.7604 409.033 72.2852V78.9375H407.637L406.545 74.7227C405.14 73.9271 403.456 73.5293 401.492 73.5293C396.956 73.5293 394.688 76.9824 394.688 83.8887C394.688 87.4772 395.373 90.0417 396.744 91.582C398.132 93.1055 400.273 93.8672 403.168 93.8672C405.639 93.8672 407.789 93.5879 409.617 93.0293V94.5527ZM433.205 72.1328V78.9375H431.809L430.717 74.7227C428.838 74.401 427.154 74.2402 425.664 74.2402H424.699V94.2227L428.102 94.8574V96H416.803V94.8574L420.484 94.2227V74.2402H419.545C418.055 74.2402 416.371 74.401 414.492 74.7227L413.4 78.9375H412.004V72.1328H433.205ZM457.301 83.9395C457.301 92.3184 453.577 96.5078 446.129 96.5078C442.54 96.5078 439.832 95.4329 438.004 93.2832C436.176 91.1335 435.262 88.0189 435.262 83.9395C435.262 79.9108 436.176 76.8301 438.004 74.6973C439.832 72.5645 442.608 71.498 446.332 71.498C449.954 71.498 452.688 72.5475 454.533 74.6465C456.378 76.7285 457.301 79.8262 457.301 83.9395ZM452.73 83.9395C452.73 80.2832 452.197 77.6341 451.131 75.9922C450.064 74.3503 448.397 73.5293 446.129 73.5293C443.911 73.5293 442.303 74.3164 441.305 75.8906C440.323 77.4648 439.832 80.1478 439.832 83.9395C439.832 87.7819 440.331 90.5072 441.33 92.1152C442.346 93.7064 443.945 94.502 446.129 94.502C448.363 94.502 450.022 93.6725 451.105 92.0137C452.189 90.3548 452.73 87.6634 452.73 83.9395ZM463.141 73.9102L460.424 73.2754V72.1328H467.127L467.178 73.5293C467.889 72.9199 468.837 72.429 470.021 72.0566C471.223 71.6842 472.442 71.498 473.678 71.498C476.725 71.498 479.077 72.556 480.736 74.6719C482.412 76.7878 483.25 79.8262 483.25 83.7871C483.25 87.8327 482.336 90.9642 480.508 93.1816C478.697 95.3991 476.073 96.5078 472.637 96.5078C470.724 96.5078 468.904 96.3216 467.178 95.9492C467.279 97.168 467.33 98.1243 467.33 98.8184V105.268L471.494 105.877V107.07H460.119V105.877L463.141 105.268V73.9102ZM478.68 83.7871C478.68 80.5371 478.146 78.125 477.08 76.5508C476.031 74.9596 474.431 74.1641 472.281 74.1641C470.301 74.1641 468.65 74.4434 467.33 75.002V94.0703C468.837 94.3581 470.487 94.502 472.281 94.502C476.547 94.502 478.68 90.9303 478.68 83.7871ZM497.088 71.5996C499.695 71.5996 501.607 72.1328 502.826 73.1992C504.062 74.2656 504.68 75.8991 504.68 78.0996V94.2227L507.65 94.8574V96H501.1L500.617 93.6133C498.688 95.543 496.225 96.5078 493.229 96.5078C489.149 96.5078 487.109 94.138 487.109 89.3984C487.109 87.8073 487.414 86.4954 488.023 85.4629C488.65 84.4134 489.64 83.6178 490.994 83.0762C492.348 82.5176 494.312 82.2129 496.885 82.1621L500.465 82.0605V78.3281C500.465 76.6862 500.16 75.4759 499.551 74.6973C498.958 73.9186 498.036 73.5293 496.783 73.5293C495.09 73.5293 493.542 73.9271 492.137 74.7227L491.273 77.6934H489.852V72.4883C492.594 71.8958 495.006 71.5996 497.088 71.5996ZM500.465 83.8379L497.139 83.9395C494.87 84.0241 493.33 84.4642 492.518 85.2598C491.722 86.0553 491.324 87.3841 491.324 89.2461C491.324 92.2253 492.535 93.7148 494.955 93.7148C496.106 93.7148 497.096 93.5879 497.926 93.334C498.772 93.0632 499.618 92.7246 500.465 92.3184V83.8379ZM512.5 73.9102L509.326 73.2754V72.1328H519.609V73.2754L516.715 73.9102V82.7461H527.887V73.9102L524.713 73.2754V72.1328H534.996V73.2754L532.102 73.9102V94.2227L534.996 94.8574V96H524.713V94.8574L527.887 94.2227V84.8535H516.715V94.2227L519.609 94.8574V96H509.326V94.8574L512.5 94.2227V73.9102ZM560.234 83.9395C560.234 92.3184 556.51 96.5078 549.062 96.5078C545.474 96.5078 542.766 95.4329 540.938 93.2832C539.109 91.1335 538.195 88.0189 538.195 83.9395C538.195 79.9108 539.109 76.8301 540.938 74.6973C542.766 72.5645 545.542 71.498 549.266 71.498C552.888 71.498 555.622 72.5475 557.467 74.6465C559.312 76.7285 560.234 79.8262 560.234 83.9395ZM555.664 83.9395C555.664 80.2832 555.131 77.6341 554.064 75.9922C552.998 74.3503 551.331 73.5293 549.062 73.5293C546.845 73.5293 545.237 74.3164 544.238 75.8906C543.257 77.4648 542.766 80.1478 542.766 83.9395C542.766 87.7819 543.265 90.5072 544.264 92.1152C545.279 93.7064 546.879 94.502 549.062 94.502C551.297 94.502 552.956 93.6725 554.039 92.0137C555.122 90.3548 555.664 87.6634 555.664 83.9395ZM563.154 96V94.8574L566.328 94.2227V73.9102L563.154 73.2754V72.1328H573.361C577.102 72.1328 579.743 72.5983 581.283 73.5293C582.84 74.4603 583.619 75.916 583.619 77.8965C583.619 79.5215 583.154 80.7741 582.223 81.6543C581.309 82.5345 580.005 83.1693 578.312 83.5586V83.7617C580.462 83.9987 582.113 84.5488 583.264 85.4121C584.415 86.2754 584.99 87.5703 584.99 89.2969C584.99 91.6836 584.118 93.4017 582.375 94.4512C580.648 95.4837 577.839 96 573.945 96H563.154ZM573.564 93.9688C576.07 93.9688 577.839 93.5964 578.871 92.8516C579.904 92.1068 580.42 90.888 580.42 89.1953C580.42 87.5872 579.87 86.4447 578.77 85.7676C577.686 85.0736 575.841 84.7266 573.234 84.7266H570.543V93.9688H573.564ZM570.543 82.6953H573.234C575.266 82.6953 576.738 82.3568 577.652 81.6797C578.583 81.0026 579.049 79.8516 579.049 78.2266C579.049 76.8555 578.575 75.8398 577.627 75.1797C576.696 74.5026 575.198 74.1641 573.133 74.1641H570.543V82.6953ZM596.365 93.6641C596.365 94.4935 596.069 95.2129 595.477 95.8223C594.901 96.4316 594.173 96.7363 593.293 96.7363C592.413 96.7363 591.676 96.4316 591.084 95.8223C590.508 95.2129 590.221 94.4935 590.221 93.6641C590.221 92.8008 590.517 92.0729 591.109 91.4805C591.702 90.888 592.43 90.5918 593.293 90.5918C594.156 90.5918 594.884 90.888 595.477 91.4805C596.069 92.0729 596.365 92.8008 596.365 93.6641Z" fill="#D67E34"/>
</svg>
